<?xml version="1.0" encoding="utf-8"?>
<!-- Generator: Adobe Illustrator 24.3.0, SVG Export Plug-In . SVG Version: 6.00 Build 0)  -->
<svg version="1.1" id="Layer_1" xmlns="http://www.w3.org/2000/svg" xmlns:xlink="http://www.w3.org/1999/xlink" x="0px" y="0px"
	 viewBox="0 0 197.5 34.8" style="enable-background:new 0 0 197.5 34.8;" xml:space="preserve">
<style type="text/css">
	.st0{fill:#C21A1A;}
	.st1{fill:#262732;}
</style>
<g id="Group_145" transform="translate(593.181 -866.172)">
	<path id="Path_119" class="st0" d="M-553.2,890.2h2.1c0.8,0,1.4-0.6,1.4-1.4v-21.3c0-0.8-0.6-1.4-1.4-1.4h-2.1
		c-0.8,0-1.4,0.6-1.4,1.4v21.3C-554.6,889.6-554,890.2-553.2,890.2"/>
	<path id="Path_120" class="st1" d="M-588.3,872.4v2.1c0,0.8,0.6,1.4,1.4,1.4h16.5c0.8,0,1.4,0.6,1.4,1.4v2.1c0,0.8-0.6,1.4-1.4,1.4
		h-16.5c-0.8,0-1.4,0.6-1.4,1.4v6.9c0,0.8-0.6,1.4-1.4,1.4h-2.1c-0.8,0-1.4-0.6-1.4-1.4v-19.7c0-0.4,0.1-0.7,0.4-1l1.6-1.6
		c0.3-0.3,0.6-0.4,1-0.4h29.3c0.8,0,1.4,0.6,1.4,1.4v2.1c0,0.8-0.6,1.4-1.4,1.4h-26.1C-587.7,871-588.3,871.6-588.3,872.4"/>
	<path id="Path_121" class="st1" d="M-540.2,872.4v11.7c0,0.8,0.6,1.4,1.4,1.4h21.3c0.8,0,1.4-0.6,1.4-1.4V882
		c0-0.8-0.6-1.4-1.4-1.4h-9.3c-0.8,0-1.4-0.6-1.4-1.4v-2.1c0-0.8,0.6-1.4,1.4-1.4h12.5c0.4,0,0.7,0.1,1,0.4l1.6,1.6
		c0.3,0.3,0.4,0.6,0.4,1v8.6c0,0.4-0.1,0.7-0.4,1l-1.5,1.5c-0.3,0.3-0.6,0.4-1,0.4h-28.1c-0.4,0-0.7-0.1-1-0.4l-1.4-1.4
		c-0.3-0.3-0.4-0.6-0.4-1v-18.3c0-0.4,0.1-0.7,0.4-1l1.6-1.6c0.3-0.3,0.6-0.4,1-0.4h26.8c0.8,0,1.4,0.6,1.4,1.4v2.1
		c0,0.8-0.6,1.4-1.4,1.4h-23.6C-539.5,871-540.1,871.6-540.2,872.4"/>
	<path id="Path_122" class="st1" d="M-473.1,868.4l-1.8-1.8c-0.3-0.3-0.6-0.4-1-0.4h-27.5c-0.4,0-0.7,0.1-1,0.4l-1.6,1.6
		c-0.3,0.3-0.4,0.6-0.4,1v19.7c0,0.8,0.6,1.4,1.4,1.4h2.1c0.8,0,1.4-0.6,1.4-1.4V882c0-0.8,0.6-1.4,1.4-1.4h21.3
		c0.8,0,1.4,0.6,1.4,1.4v6.9c0,0.8,0.6,1.4,1.4,1.4h2.1c0.8,0,1.4-0.6,1.4-1.4l0-19.5C-472.7,869-472.9,868.7-473.1,868.4
		 M-478.9,875.8h-21.3c-0.8,0-1.4-0.6-1.4-1.4v-2.1c0-0.8,0.6-1.4,1.4-1.4h21.3c0.8,0,1.4,0.6,1.4,1.4v2.1
		C-477.6,875.2-478.2,875.8-478.9,875.8L-478.9,875.8z"/>
	<path id="Path_123" class="st0" d="M-396.1,888.3l-1.5,1.5c-0.3,0.3-0.6,0.4-1,0.4H-428c-0.8,0-1.4-0.6-1.4-1.4v-13.1h4.8v8.2
		c0,0.8,0.6,1.4,1.4,1.4h21.3c0.8,0,1.4-0.6,1.4-1.4v-8.3h4.8l0,11.5C-395.7,887.7-395.8,888.1-396.1,888.3"/>
	<path id="Path_124" class="st0" d="M-395.7,867.5v3.4h-33.7v-1.8c0-0.4,0.1-0.7,0.4-1l1.6-1.6c0.3-0.3,0.6-0.4,1-0.4h29.3
		C-396.3,866.2-395.7,866.8-395.7,867.5"/>
	<path id="Path_125" class="st1" d="M-442.2,880.6h5c0.4,0,0.7-0.1,1-0.4l1.6-1.6c0.3-0.3,0.4-0.6,0.4-1l0-8.5c0-0.4-0.1-0.7-0.4-1
		l-1.6-1.6c-0.3-0.3-0.6-0.4-1-0.4h-27.8c-0.4,0-0.7,0.1-1,0.4l-1.6,1.6c-0.3,0.3-0.4,0.6-0.4,1v19.7c0,0.8,0.6,1.4,1.4,1.4h2.1
		c0.8,0,1.4-0.6,1.4-1.4V882c0-0.8,0.6-1.4,1.4-1.4h10.5c0.4,0,0.7,0.1,1,0.4l8.8,8.8c0.3,0.3,0.6,0.4,1,0.4h4.6
		c0.4,0,0.7-0.3,0.7-0.7c0-0.2-0.1-0.4-0.2-0.5l-7.3-7.3c-0.3-0.3-0.3-0.7,0-1C-442.5,880.7-442.4,880.6-442.2,880.6 M-463.1,874.4
		v-2.1c0-0.8,0.6-1.4,1.4-1.4h21.3c0.8,0,1.4,0.6,1.4,1.4v2.1c0,0.8-0.6,1.4-1.4,1.4h-21.3C-462.5,875.8-463.1,875.2-463.1,874.4
		C-463.1,874.4-463.1,874.4-463.1,874.4L-463.1,874.4z"/>
	<path id="Path_126" class="st0" d="M-588.4,899.7c-0.1-0.1-0.2-0.3-0.3-0.4c-0.1-0.1-0.2-0.3-0.3-0.4c-0.1-0.1-0.2-0.2-0.3-0.3
		c-0.1-0.1-0.3-0.2-0.4-0.3c0.4,0,0.8-0.2,1.2-0.5c0.3-0.3,0.5-0.7,0.4-1.1c0-0.2,0-0.4-0.1-0.6c-0.1-0.2-0.2-0.3-0.3-0.4
		c-0.1-0.1-0.3-0.2-0.4-0.3c-0.2-0.1-0.3-0.1-0.5-0.2c-0.2,0-0.4-0.1-0.5-0.1c-0.2,0-0.4,0-0.5,0h-2.6v5.7h1.2v-2.4
		c0.1,0,0.3,0,0.4,0c0.1,0,0.3,0,0.4,0.1c0.1,0,0.2,0.1,0.3,0.2c0.1,0.1,0.2,0.2,0.3,0.3c0.1,0.1,0.2,0.2,0.2,0.3
		c0.1,0.1,0.1,0.2,0.2,0.3l0.9,1.2h1.5L-588.4,899.7z M-590.2,897.5c-0.1,0-0.3,0-0.4,0h-1.3V896h1.4c0.1,0,0.3,0,0.4,0
		c0.1,0,0.2,0,0.3,0.1c0.1,0,0.2,0.1,0.3,0.2c0.1,0.1,0.1,0.3,0.1,0.4c0,0.1,0,0.3-0.1,0.4c-0.1,0.1-0.2,0.2-0.3,0.2
		C-589.9,897.4-590.1,897.5-590.2,897.5L-590.2,897.5z"/>
	<path id="Path_127" class="st0" d="M-578.6,899.8v-1.6h3.1v-1h-3.1V896h3.3v-1h-4.6v5.7h4.7v-1L-578.6,899.8z"/>
	<path id="Path_128" class="st0" d="M-562.5,898.4c-0.1-0.2-0.2-0.4-0.4-0.5c-0.2-0.1-0.4-0.3-0.6-0.3c-0.2-0.1-0.4-0.2-0.7-0.2
		c-0.2-0.1-0.4-0.1-0.7-0.2c-0.2,0-0.4-0.1-0.6-0.2c-0.1,0-0.3-0.1-0.4-0.2c-0.1-0.1-0.2-0.2-0.2-0.3c0-0.1,0-0.2,0.1-0.3
		c0.1-0.1,0.2-0.1,0.3-0.2c0.1,0,0.2-0.1,0.3-0.1c0.1,0,0.2,0,0.3,0c0.3,0,0.5,0,0.8,0.2c0.2,0.2,0.3,0.4,0.4,0.7l1.2-0.1
		c0-0.3-0.1-0.6-0.2-0.8c-0.1-0.2-0.3-0.4-0.5-0.5c-0.2-0.1-0.5-0.2-0.7-0.3c-0.3-0.1-0.6-0.1-0.9-0.1c-0.3,0-0.5,0-0.8,0.1
		c-0.3,0.1-0.5,0.1-0.7,0.3c-0.2,0.1-0.4,0.3-0.5,0.5c-0.1,0.2-0.2,0.5-0.2,0.7c0,0.3,0.1,0.6,0.3,0.9c0.2,0.2,0.4,0.4,0.7,0.5
		c0.3,0.1,0.6,0.2,0.8,0.3c0.3,0.1,0.6,0.1,0.9,0.2c0.2,0.1,0.4,0.1,0.7,0.2c0.2,0.1,0.3,0.2,0.3,0.4c0,0.1,0,0.3-0.1,0.4
		c-0.1,0.1-0.2,0.2-0.3,0.2c-0.1,0.1-0.3,0.1-0.4,0.1c-0.1,0-0.3,0-0.4,0c-0.3,0-0.7-0.1-0.9-0.3c-0.2-0.2-0.4-0.5-0.4-0.8l-1.2,0.1
		c0,0.6,0.3,1.1,0.8,1.5c0.5,0.3,1.1,0.5,1.7,0.5c0.3,0,0.6,0,0.8-0.1c0.3,0,0.5-0.1,0.8-0.3c0.2-0.1,0.4-0.3,0.6-0.5
		c0.2-0.3,0.3-0.6,0.2-0.9C-562.3,898.9-562.3,898.6-562.5,898.4"/>
	<path id="Path_129" class="st0" d="M-554.5,895.1v1h1.8v4.8h1.2V896h1.8v-1H-554.5z"/>
	<path id="Path_130" class="st0" d="M-538.1,895.1h-1.3l-2.4,5.7h1.3l0.5-1.3h2.5l0.5,1.3h1.4L-538.1,895.1z M-539.6,898.5l0.8-2.1
		l0.8,2.1H-539.6z"/>
	<path id="Path_131" class="st0" d="M-524,895.1v3.4c0,0.2,0,0.4,0,0.6c0,0.2-0.1,0.3-0.1,0.5c-0.1,0.1-0.2,0.3-0.3,0.3
		c-0.2,0.1-0.4,0.1-0.7,0.1c-0.2,0-0.5,0-0.7-0.1c-0.2-0.1-0.3-0.2-0.4-0.4c-0.1-0.2-0.1-0.4-0.1-0.5c0-0.2,0-0.4,0-0.7v-3.1h-1.2
		v3.1c0,0.2,0,0.5,0,0.7c0,0.2,0,0.5,0.1,0.7c0.1,0.3,0.2,0.5,0.3,0.7c0.2,0.2,0.4,0.3,0.6,0.4c0.2,0.1,0.5,0.2,0.7,0.2
		c0.3,0,0.5,0.1,0.8,0.1c0.3,0,0.5,0,0.8-0.1c0.2,0,0.5-0.1,0.7-0.2c0.2-0.1,0.4-0.2,0.5-0.4c0.2-0.2,0.3-0.4,0.3-0.7
		c0-0.2,0.1-0.5,0.1-0.7c0-0.2,0-0.5,0-0.7v-3L-524,895.1z"/>
	<path id="Path_132" class="st0" d="M-510.2,899.7c-0.1-0.1-0.2-0.3-0.3-0.4c-0.1-0.1-0.2-0.3-0.3-0.4c-0.1-0.1-0.2-0.2-0.3-0.3
		c-0.1-0.1-0.3-0.2-0.4-0.3c0.4,0,0.8-0.2,1.2-0.5c0.3-0.3,0.5-0.7,0.4-1.1c0-0.2,0-0.4-0.1-0.6c-0.1-0.2-0.2-0.3-0.3-0.4
		c-0.1-0.1-0.3-0.2-0.4-0.3c-0.2-0.1-0.3-0.1-0.5-0.2c-0.2,0-0.4-0.1-0.6-0.1c-0.2,0-0.4,0-0.5,0h-2.6v5.7h1.2v-2.4
		c0.1,0,0.3,0,0.4,0c0.1,0,0.3,0,0.4,0.1c0.1,0,0.2,0.1,0.3,0.2c0.1,0.1,0.2,0.2,0.3,0.3c0.1,0.1,0.2,0.2,0.2,0.3
		c0.1,0.1,0.1,0.2,0.2,0.3l0.9,1.2h1.5L-510.2,899.7z M-512,897.5c-0.1,0-0.3,0-0.4,0h-1.3V896h1.4c0.1,0,0.3,0,0.4,0
		c0.1,0,0.2,0,0.3,0.1c0.1,0,0.2,0.1,0.3,0.2c0.1,0.1,0.1,0.3,0.1,0.4c0,0.1,0,0.3-0.1,0.4c-0.1,0.1-0.2,0.2-0.3,0.2
		C-511.7,897.4-511.8,897.5-512,897.5L-512,897.5z"/>
	<path id="Path_133" class="st0" d="M-497.9,895.1h-1.3l-2.4,5.7h1.3l0.5-1.3h2.5l0.5,1.3h1.3L-497.9,895.1z M-499.4,898.5l0.8-2.1
		l0.8,2.1H-499.4z"/>
	<path id="Path_134" class="st0" d="M-483.8,895.1v3.8l-2.5-3.8h-1.2v5.7h1.2v-3.7l2.5,3.7h1.2v-5.7H-483.8z"/>
	<path id="Path_135" class="st0" d="M-474.9,895.1v1h1.8v4.8h1.2V896h1.8v-1H-474.9z"/>
	<path id="Path_136" class="st0" d="M-451.1,897.7v1h1.4v0.7c-0.2,0.2-0.4,0.3-0.7,0.4c-0.2,0.1-0.5,0.1-0.8,0.1
		c-0.3,0-0.6-0.1-0.8-0.2c-0.2-0.1-0.4-0.3-0.6-0.5c-0.1-0.2-0.2-0.4-0.3-0.7c-0.1-0.3-0.1-0.5-0.1-0.8c0-0.3,0-0.5,0.1-0.8
		c0.1-0.2,0.2-0.4,0.3-0.6c0.1-0.2,0.3-0.3,0.5-0.4c0.3-0.1,0.5-0.2,0.8-0.1c0.3,0,0.6,0.1,0.9,0.2c0.3,0.2,0.4,0.4,0.5,0.7l1.3-0.2
		c-0.1-0.3-0.2-0.6-0.4-0.8c-0.2-0.2-0.4-0.4-0.6-0.5c-0.2-0.1-0.5-0.2-0.8-0.3c-0.3-0.1-0.6-0.1-0.9-0.1c-0.4,0-0.9,0.1-1.3,0.2
		c-0.4,0.1-0.7,0.3-1,0.6c-0.3,0.3-0.5,0.6-0.6,0.9c-0.1,0.4-0.2,0.8-0.2,1.2c0,0.4,0.1,0.8,0.2,1.2c0.1,0.4,0.3,0.7,0.6,1
		c0.3,0.3,0.6,0.5,1,0.6c0.4,0.1,0.9,0.2,1.3,0.2c0.2,0,0.5,0,0.7-0.1c0.2,0,0.5-0.1,0.7-0.2c0.2-0.1,0.5-0.2,0.7-0.3
		c0.2-0.1,0.4-0.2,0.6-0.4v-2.3L-451.1,897.7z"/>
	<path id="Path_137" class="st0" d="M-435.7,899.7c-0.1-0.1-0.2-0.3-0.3-0.4c-0.1-0.1-0.2-0.3-0.3-0.4c-0.1-0.1-0.2-0.2-0.3-0.3
		c-0.1-0.1-0.3-0.2-0.5-0.3c0.4,0,0.9-0.2,1.2-0.5c0.3-0.3,0.5-0.7,0.5-1.1c0-0.2,0-0.4-0.1-0.7c-0.1-0.2-0.2-0.3-0.3-0.5
		c-0.1-0.1-0.3-0.2-0.4-0.3c-0.2-0.1-0.3-0.1-0.5-0.2c-0.2,0-0.4-0.1-0.6-0.1c-0.2,0-0.4,0-0.5,0h-2.6v5.8h1.3v-2.4
		c0.1,0,0.3,0,0.5,0c0.1,0,0.3,0,0.4,0.1c0.1,0,0.2,0.1,0.3,0.2c0.1,0.1,0.2,0.2,0.3,0.3c0.1,0.1,0.2,0.2,0.2,0.3
		c0.1,0.1,0.1,0.2,0.2,0.3l0.9,1.3h1.5L-435.7,899.7z M-437.5,897.5c-0.1,0-0.3,0-0.4,0h-1.3V896h1.4c0.1,0,0.3,0,0.4,0
		c0.1,0,0.2,0,0.4,0.1c0.1,0,0.2,0.1,0.3,0.2c0.1,0.1,0.1,0.3,0.1,0.4c0,0.1,0,0.3-0.1,0.4c-0.1,0.1-0.2,0.2-0.3,0.2
		C-437.3,897.4-437.4,897.5-437.5,897.5L-437.5,897.5z"/>
	<path id="Path_138" class="st0" d="M-421.2,896.7c-0.1-0.4-0.3-0.7-0.6-1c-0.3-0.3-0.6-0.5-0.9-0.6c-0.4-0.2-0.9-0.2-1.3-0.2
		c-0.4,0-0.9,0.1-1.3,0.2c-0.4,0.1-0.7,0.3-0.9,0.6c-0.3,0.3-0.5,0.6-0.6,1c-0.1,0.4-0.2,0.8-0.2,1.2c0,0.4,0.1,0.8,0.2,1.2
		c0.1,0.4,0.3,0.7,0.6,0.9c0.3,0.3,0.6,0.5,0.9,0.6c0.4,0.1,0.9,0.2,1.3,0.2c0.4,0,0.9-0.1,1.3-0.2c0.4-0.1,0.7-0.3,0.9-0.6
		c0.3-0.3,0.4-0.6,0.6-0.9c0.1-0.4,0.2-0.8,0.2-1.2C-421,897.5-421.1,897.1-421.2,896.7 M-422.4,898.7c-0.1,0.2-0.2,0.5-0.3,0.7
		c-0.1,0.2-0.3,0.3-0.5,0.5c-0.2,0.1-0.5,0.2-0.8,0.2c-0.3,0-0.5,0-0.8-0.2c-0.2-0.1-0.4-0.3-0.5-0.5c-0.1-0.2-0.3-0.4-0.3-0.6
		c-0.1-0.2-0.1-0.5-0.1-0.7c0-0.3,0-0.5,0.1-0.8c0.1-0.2,0.2-0.4,0.3-0.6c0.1-0.2,0.3-0.3,0.5-0.4c0.3-0.1,0.5-0.2,0.8-0.2
		c0.3,0,0.5,0,0.8,0.2c0.2,0.1,0.4,0.3,0.5,0.4c0.1,0.2,0.2,0.4,0.3,0.6c0.1,0.2,0.1,0.5,0.1,0.7
		C-422.4,898.2-422.4,898.4-422.4,898.7L-422.4,898.7z"/>
	<path id="Path_139" class="st0" d="M-409.5,895v3.4c0,0.2,0,0.4,0,0.6c0,0.2-0.1,0.3-0.1,0.5c-0.1,0.1-0.2,0.3-0.4,0.3
		c-0.2,0.1-0.4,0.1-0.7,0.1c-0.2,0-0.5,0-0.7-0.1c-0.2-0.1-0.3-0.2-0.4-0.4c-0.1-0.2-0.1-0.4-0.1-0.6c0-0.2,0-0.4,0-0.7V895h-1.3
		v3.1c0,0.2,0,0.5,0,0.7c0,0.2,0,0.5,0.1,0.7c0.1,0.3,0.2,0.5,0.4,0.7c0.2,0.2,0.4,0.3,0.6,0.4c0.2,0.1,0.5,0.2,0.7,0.2
		c0.3,0,0.5,0.1,0.8,0.1c0.3,0,0.5,0,0.8-0.1c0.2,0,0.5-0.1,0.7-0.2c0.2-0.1,0.4-0.2,0.5-0.4c0.2-0.2,0.3-0.4,0.3-0.7
		c0.1-0.2,0.1-0.5,0.1-0.7c0-0.3,0-0.5,0-0.7v-3L-409.5,895z"/>
	<path id="Path_140" class="st0" d="M-396.2,895.5c-0.5-0.4-1.1-0.5-1.7-0.5h-0.3c-0.1,0-0.2,0-0.3,0h-2v5.8h1.3v-2.2h0.8
		c0.3,0,0.6,0,0.9,0c0.3,0,0.6-0.1,0.9-0.2c0.3-0.1,0.5-0.3,0.7-0.5c0.2-0.3,0.3-0.7,0.3-1C-395.7,896.3-395.9,895.8-396.2,895.5
		 M-397.1,897.3c-0.1,0.1-0.2,0.2-0.4,0.2c-0.2,0.1-0.3,0.1-0.5,0.1c-0.2,0-0.4,0-0.5,0h-0.7V896h0.7c0.2,0,0.4,0,0.6,0
		c0.2,0,0.3,0,0.5,0.1c0.1,0,0.3,0.1,0.4,0.2c0.1,0.1,0.1,0.3,0.1,0.5C-397,897-397,897.2-397.1,897.3L-397.1,897.3z"/>
</g>
</svg>
